<?xml version="1.0" encoding="UTF-8"?>
<svg id="Layer_2" data-name="Layer 2" xmlns="http://www.w3.org/2000/svg" viewBox="0 0 336.64 383.16">
  <defs>
    <style>
      .cls-1, .cls-2 {
        stroke-width: 0px;
      }

      .cls-2 {
        fill: #ffc107;
      }
    </style>
  </defs>
  <g id="Layer_1-2" data-name="Layer 1">
    <path class="cls-1" d="m77.76,383.16c-.52-1.11-1.7-.92-2.58-1.2-14.9-4.73-23.57-16.44-23.58-32.15-.03-43.27-.06-86.54.08-129.81.01-3.59-.82-4.57-4.47-4.49-11.59.26-23.19.12-34.79.09-7.75-.02-12.38-4.56-12.39-12.26-.03-27.93-.03-55.86,0-83.8,0-7.66,4.7-12.28,12.43-12.31,11.85-.05,23.69-.13,35.54.06,3.06.05,3.65-.94,3.64-3.78-.11-23.07-.07-46.14-.06-69.21C51.59,13.68,65.18.06,85.73.06,131,.05,176.27.08,221.53,0c3.23,0,5.64.91,7.94,3.22,34.51,34.62,69.07,69.18,103.7,103.69,2.51,2.5,3.46,5.12,3.46,8.61-.07,77.69-.05,155.37-.06,233.06,0,17.83-8.89,29.37-26.06,33.93-.3.08-.53.43-.8.66H77.76Zm248.35-147.11c0-38.16-.04-76.32.07-114.48,0-3.09-.77-3.96-3.91-3.94-26.94.13-53.87.08-80.81.06-2.49,0-4.98.1-7.43-.56-9.68-2.6-15.26-10.36-15.28-21.67-.05-26.81-.08-53.62.06-80.44.02-3.46-.63-4.6-4.39-4.58-42.9.15-85.8.09-128.7.1-14.61,0-23.64,8.95-23.65,23.45-.02,23.07.07,46.14-.09,69.21-.02,3.29.8,4.11,4.09,4.1,44.9-.12,89.79-.08,134.69-.08,9.27,0,13.42,4.16,13.42,13.49.01,27.19.01,54.37,0,81.56,0,9.36-4.04,13.33-13.47,13.33-44.9,0-89.79.05-134.69-.09-3.41-.01-4.04.96-4.03,4.15.11,42.9.07,85.8.07,128.7,0,15.6,8.71,24.32,24.29,24.32,71.83,0,143.67,0,215.5,0,15.49,0,24.25-8.81,24.25-24.39,0-37.41,0-74.83,0-112.24Zm-241.03-74.8c0,8.1-.03,16.2.01,24.31.02,4.74,1.79,6.5,6.58,6.57,4.99.07,9.97.12,14.96,0,13.42-.34,22.66-9.76,22.75-23.12.04-5.61.14-11.22-.05-16.83-.39-11.6-9.89-20.93-21.49-21.18-5.48-.12-10.97-.07-16.45-.03-4.58.04-6.26,1.72-6.28,6.36-.05,7.98-.01,15.96-.01,23.93Zm-49.95.04c0,8.1-.03,16.2.01,24.3.02,4.03,2,6.41,5.2,6.43,3.22.02,5.22-2.34,5.25-6.35.05-4.98.28-9.99-.08-14.95-.25-3.51,1.06-4.19,4.19-3.99,3.97.25,7.98.18,11.96.02,10.37-.41,17.88-8.23,17.72-18.33-.15-9.92-7.81-17.35-18.11-17.46-6.6-.07-13.21-.05-19.82,0-4.48.03-6.29,1.87-6.32,6.4-.04,7.98-.01,15.95-.01,23.93Zm99.65-.03c0,8.1-.04,16.2.02,24.3.03,4.06,2.02,6.42,5.21,6.49,3.13.07,5.19-2.38,5.23-6.35.05-4.86.29-9.74-.08-14.58-.29-3.8,1.11-4.58,4.6-4.41,5.97.28,11.96.12,17.94.06,3.98-.04,6.42-2.09,6.48-5.23.06-3.14-2.37-5.17-6.36-5.22-3.74-.04-7.48.12-11.22-.05-3.68-.16-8.42,1.65-10.74-.83-2.12-2.27-.32-6.92-.65-10.49-.26-2.71.52-3.69,3.44-3.61,7.97.21,15.95.1,23.93.06,4.22-.02,6.71-2.12,6.59-5.43-.12-3.19-2.44-5.01-6.56-5.02-10.34-.03-20.69-.03-31.03,0-4.95.01-6.75,1.79-6.78,6.75-.05,7.85-.01,15.7-.01,23.56Z"/>
    <path class="cls-2" d="m85.07,161.25c0-7.98-.03-15.96.01-23.93.03-4.63,1.71-6.32,6.28-6.36,5.48-.04,10.97-.09,16.45.03,11.6.25,21.1,9.58,21.49,21.18.19,5.6.09,11.22.05,16.83-.09,13.36-9.32,22.77-22.75,23.12-4.98.13-9.97.07-14.96,0-4.78-.06-6.55-1.83-6.58-6.57-.04-8.1-.01-16.2-.01-24.31Zm33.82.06c0-2.74.08-5.48-.02-8.22-.22-6.63-5.07-11.47-11.66-11.65-2.86-.08-5.74.13-8.59-.07-2.45-.17-3.18.67-3.14,3.12.14,8.71.05,17.43.05,26.15,0,12.29.59,12.78,13.12,10.75,6.04-.98,9.99-5.38,10.21-11.5.1-2.86.02-5.73.02-8.59Z"/>
    <path class="cls-2" d="m35.12,161.29c0-7.98-.03-15.95.01-23.93.03-4.53,1.84-6.37,6.32-6.4,6.6-.05,13.21-.07,19.82,0,10.3.11,17.96,7.54,18.11,17.46.15,10.09-7.36,17.92-17.72,18.33-3.98.16-7.99.23-11.96-.02-3.13-.2-4.44.48-4.19,3.99.35,4.96.12,9.96.08,14.95-.04,4.02-2.03,6.38-5.25,6.35-3.2-.02-5.18-2.4-5.2-6.43-.04-8.1-.01-16.2-.01-24.3Zm19.2-19.85c-2.35.39-6.4-1.46-8.18.71-1.49,1.81-.47,5.69-.54,8.65-.03,1.24,0,2.49,0,3.73,0,.96.2,1.79,1.38,1.75,5.46-.14,10.97.65,16.36-.4,3.93-.76,5.95-4.13,5.49-8.1-.42-3.59-3.22-6.14-7.11-6.33-2.23-.11-4.47-.02-7.4-.02Z"/>
    <path class="cls-2" d="m134.77,161.26c0-7.85-.04-15.7.01-23.56.03-4.96,1.83-6.74,6.78-6.75,10.34-.03,20.69-.03,31.03,0,4.12.01,6.44,1.84,6.56,5.02.12,3.31-2.36,5.41-6.59,5.43-7.98.04-15.96.15-23.93-.06-2.92-.08-3.7.9-3.44,3.61.34,3.58-1.46,8.23.65,10.49,2.32,2.48,7.06.67,10.74.83,3.73.16,7.48,0,11.22.05,3.99.04,6.43,2.08,6.36,5.22-.06,3.15-2.5,5.19-6.48,5.23-5.98.06-11.97.22-17.94-.06-3.48-.17-4.88.62-4.6,4.41.37,4.83.12,9.71.08,14.58-.04,3.97-2.1,6.42-5.23,6.35-3.19-.07-5.18-2.43-5.21-6.49-.06-8.1-.02-16.2-.02-24.3Z"/>
    <path class="cls-2" d="m194.11,299.02c-31.68,0-63.35,0-95.03,0-5.62,0-8.29-1.7-8.37-5.28-.08-3.57,2.69-5.4,8.24-5.4,63.48,0,126.95,0,190.43.01,1.36,0,2.75.07,4.07.38,2.51.59,3.83,2.42,3.85,4.88.02,2.64-1.41,4.53-4.08,5.08-1.45.3-2.97.3-4.46.3-31.55.02-63.1.01-94.65.01Z"/>
    <path class="cls-2" d="m193.99,259.67c-31.67,0-63.34,0-95.01,0-1.12,0-2.26.09-3.36-.06-3.01-.42-4.84-2.24-4.79-5.25.04-2.98,1.84-4.81,4.9-5.13.99-.1,1.99-.04,2.99-.04,63.59,0,127.18,0,190.76,0,1.12,0,2.27-.11,3.36.09,2.63.48,4.25,2.04,4.37,4.8.13,2.91-1.35,4.76-4.12,5.43-1.18.29-2.48.15-3.72.15-31.79,0-63.59,0-95.38,0Z"/>
    <path class="cls-2" d="m194.49,327.76c31.54,0,63.09,0,94.63,0,1.12,0,2.26-.09,3.36.04,2.83.35,4.59,1.91,4.72,4.86.13,3.09-1.5,4.92-4.48,5.48-1.09.2-2.24.09-3.36.09-63.46,0-126.92,0-190.38,0-.62,0-1.25.01-1.87,0-3.98-.1-6.38-2.13-6.34-5.32.05-3.18,2.44-5.14,6.47-5.14,32.42-.02,64.83,0,97.25,0Z"/>
    <path class="cls-1" d="m118.89,161.3c0,2.86.08,5.73-.02,8.59-.22,6.12-4.17,10.52-10.21,11.5-12.53,2.03-13.12,1.54-13.12-10.75,0-8.72.08-17.43-.05-26.15-.04-2.46.7-3.29,3.14-3.12,2.85.19,5.73-.01,8.59.07,6.59.18,11.44,5.02,11.66,11.65.09,2.74.02,5.48.02,8.22Z"/>
    <path class="cls-1" d="m54.32,141.44c2.93,0,5.17-.09,7.4.02,3.9.19,6.7,2.74,7.11,6.33.46,3.97-1.57,7.33-5.49,8.1-5.39,1.05-10.9.26-16.36.4-1.19.03-1.39-.8-1.38-1.75,0-1.24-.03-2.49,0-3.73.07-2.96-.95-6.84.54-8.65,1.78-2.17,5.83-.32,8.18-.71Z"/>
  </g>
</svg>