<?xml version="1.0" encoding="UTF-8"?>
<svg id="Layer_2" data-name="Layer 2" xmlns="http://www.w3.org/2000/svg" viewBox="0 0 370.16 322.08">
  <defs>
    <style>
      .cls-1 {
        fill: #ffc107;
        stroke-width: 0px;
      }

      .cls-2 {
        fill: none;
        stroke: #000;
        stroke-miterlimit: 10;
        stroke-width: 10px;
      }
    </style>
  </defs>
  <g id="Layer_1-2" data-name="Layer 1">
    <path class="cls-2" d="m185.1,317.07c-47.63,0-95.27.02-142.9-.01-19.24-.02-33.74-12.32-36.8-31.16-.36-2.2-.38-4.48-.38-6.72-.02-78.75-.02-157.5-.01-236.25,0-22.52,15.38-37.92,37.9-37.92,94.77-.01,189.54-.01,284.31,0,22.56,0,37.93,15.34,37.93,37.88.02,78.75.02,157.5,0,236.25,0,22.55-15.37,37.92-37.89,37.92-47.38.02-94.77,0-142.15,0Z"/>
    <path class="cls-1" d="m129.83,160.89c0-19.36.06-38.73-.04-58.09-.03-5.3,1.53-9.6,6.32-12.26,4.66-2.59,9.06-1.63,13.41,1.1,31.1,19.48,62.26,38.89,93.36,58.37,9.4,5.88,9.44,16.13.08,22-31.2,19.56-62.46,39.03-93.68,58.57-4.38,2.74-8.83,3.49-13.42.82-4.41-2.57-6.08-6.63-6.06-11.66.07-19.61.03-39.23.03-58.84Z"/>
  </g>
</svg>