<?xml version="1.0" encoding="UTF-8"?>
<svg id="Layer_2" data-name="Layer 2" xmlns="http://www.w3.org/2000/svg" viewBox="0 0 64.87 122">
  <defs>
    <style>
      .cls-1 {
        fill: #003359;
      }

      .cls-2 {
        fill: #f12c3e;
      }
    </style>
  </defs>
  <g id="Layer_1-2" data-name="Layer 1">
    <path class="cls-1" d="m64.86,12.17c.1-9.96-4.88-11-9.91-11.57C51.45.2,37.01-.05,31.63,0c-3.67.04-21.21.1-26.08,2.1C2.7,3.28,1.11,5.71.41,9.11-.04,11.34.13,14.09.02,16.65c-.11,2.62.28,35.25.22,45.85-.04,7.4.02,12.58-.1,20.24-.05,2.42.2,4.84.74,7.2,1,3.52,4.11,7.51,13.22,7.6,5.23.05,15.22.04,20.67-.05.49,4.68-.04,11.93-3.07,20.4-.22.6-.44,1.21-.69,1.83l-.02.05c-.29.67-.6,1.3-.14,1.81.29.4.82.53,1.26.32.25-.1.48-.21.71-.35l-.04.03s.03-.02.07-.04c.39-.23.77-.48,1.13-.76,3.32-2.35,12.54-10.33,14.95-22.93,4.38.03,8.65-.38,11.15-2.12,3.61-2.51,4.77-6.09,4.77-12.24,0-36.76,0-71.31,0-71.31h0Zm-6.65,55.7c.11,12.1-.35,20.85-.35,20.85-.39,6.73-11.39,6.86-11.39,6.86-1.11,14.35-13.33,23.99-13.33,23.99.75-1.46,1.38-2.97,1.89-4.53,1.48-4.36,2.47-8.86,2.96-13.44.36-4.1.32-7.6-.96-10.31-1.03-2.19-3.26-3.24-5.45-4.37-1.44-.75-7.09-3.67-7.09-3.67-4.56-2.31-5.13-3.89-5.49-5.81-.61-3.22-.43-46.57-.37-51.41.12-9.74,1.18-11.09,6.92-12.46,10.16-2.42,29.32-5.93,29.32-5.93,3.43-.61,3.28,3.16,3.35,6.04.23,9.02-.19,33.99,0,54.2h0Z"/>
    <path class="cls-2" d="m19.39,95.22c-2.17.06-4.35,0-6.51-.2-2.98-.31-5.83-1.77-7.2-3.93-2.13-3.34-1.77-8.71-1.88-13.94-.1-5.04-.17-49.05-.17-49.73,0-1.96.03-4.97.06-7.05.07-4.94-.56-11.04,1.86-14.06,1.23-1.35,2.88-2.25,4.69-2.53,4.85-.89,13.48-1.07,20.76-1.17,7.56-.1,19.04.6,21.6.75.62.04,1.9.07,1.87.5-.02.45-1.14.58-1.68.7-2.18.51-26.51,5.7-30.64,7.15-4.37,1.53-5.48,3.96-5.8,9.82-.19,3.54-.58,49.69-.48,53.15.11,3.81.35,6.29,2.68,8.3,1.29,1.08,2.69,2.02,4.18,2.79,2.9,1.52,5.98,3.21,7.75,4.24,0,0,.02.01.03.02.11.07.22.13.32.19.69.43,1.33.93,1.9,1.51.61.59,1.06,1.32,1.33,2.12.15.47.28.94.38,1.43-3.94.06-11.46-.08-15.06-.06h0Z"/>
  </g>
</svg>