<?xml version="1.0" encoding="UTF-8"?>
<svg id="Layer_2" data-name="Layer 2" xmlns="http://www.w3.org/2000/svg" viewBox="0 0 64.87 122">
  <defs>
    <style>
      .cls-1 {
        fill: #003359;
      }
    </style>
  </defs>
  <g id="Layer_1-2" data-name="Layer 1">
    <path class="cls-1" d="m64.86,12.17c.1-9.96-4.88-11-9.91-11.57C51.45.2,37.01-.05,31.63,0c-3.67.04-21.21.1-26.08,2.1C2.7,3.28,1.11,5.71.41,9.11-.04,11.34.13,14.09.02,16.65c-.11,2.62.28,35.25.22,45.85-.04,7.4.02,12.58-.1,20.24-.05,2.42.2,4.84.74,7.2,1,3.52,4.11,7.51,13.22,7.6,5.23.05,15.22.04,20.67-.05.49,4.68-.04,11.93-3.07,20.4-.22.6-.44,1.21-.69,1.83l-.02.05c-.29.67-.6,1.3-.14,1.81.29.4.82.53,1.26.32.25-.1.48-.21.71-.35l-.04.03s.03-.02.07-.04c.39-.23.77-.48,1.13-.76,3.32-2.35,12.54-10.33,14.95-22.93,4.38.03,8.65-.38,11.15-2.12,3.61-2.51,4.77-6.09,4.77-12.24,0-36.76,0-71.31,0-71.31h0Zm-6.65,55.7c.11,12.1-.35,20.85-.35,20.85-.39,6.73-11.39,6.86-11.39,6.86-1.11,14.35-13.33,23.99-13.33,23.99.75-1.46,1.38-2.97,1.89-4.53,1.48-4.36,2.47-8.86,2.96-13.44.36-4.1.32-7.6-.96-10.31-1.03-2.19-3.26-3.24-5.45-4.37-1.44-.75-7.09-3.67-7.09-3.67-4.56-2.31-5.13-3.89-5.49-5.81-.61-3.22-.43-46.57-.37-51.41.12-9.74,1.18-11.09,6.92-12.46,10.16-2.42,29.32-5.93,29.32-5.93,3.43-.61,3.28,3.16,3.35,6.04.23,9.02-.19,33.99,0,54.2h0Z"/>
  </g>
</svg>